<svg xmlns="http://www.w3.org/2000/svg" xmlns:xlink="http://www.w3.org/1999/xlink" width="610px" height="585px" version="1.1"><defs/><g transform="translate(0.5,0.5)"><path d="M 22 200 L 52 200 L 82 230 L 82 280 L 22 280 L 22 200 Z" fill="#ffffff" stroke="#000000" stroke-miterlimit="10" pointer-events="none"/><path d="M 52 200 L 52 230 L 82 230" fill="none" stroke="#000000" stroke-miterlimit="10" pointer-events="none"/><rect x="12" y="300" width="80" height="40" fill="none" stroke="none" pointer-events="none"/><g fill="#000000" font-family="Helvetica" text-anchor="middle" font-size="12px"><text x="52" y="310">Archive File</text><text x="52" y="324">encrypted with</text><text x="52" y="338">&lt;master password&gt;</text></g><rect x="272" y="90" width="80" height="40" fill="none" stroke="none" pointer-events="none"/><g fill="#000000" font-family="Helvetica" text-anchor="middle" font-size="12px"><text x="312" y="100">&lt;service 1 name&gt; file</text><text x="312" y="114">encrypted with</text><text x="312" y="128">&lt;service 1 master password&gt;</text></g><rect x="272" y="540" width="80" height="40" fill="none" stroke="none" pointer-events="none"/><g fill="#000000" font-family="Helvetica" text-anchor="middle" font-size="12px"><text x="312" y="550">&lt;service n name&gt; file</text><text x="312" y="564">encrypted with</text><text x="312" y="578">&lt;service n master password&gt;</text></g><rect x="272" y="290" width="80" height="40" fill="none" stroke="none" pointer-events="none"/><g fill="#000000" font-family="Helvetica" text-anchor="middle" font-size="12px"><text x="312" y="300">&lt;service 2 name&gt; file</text><text x="312" y="314">encrypted with</text><text x="312" y="328">&lt;service 2 master password&gt;</text></g><path d="M 282 0 L 312 0 L 342 30 L 342 80 L 282 80 L 282 0 Z" fill="#ffffff" stroke="#000000" stroke-miterlimit="10" pointer-events="none"/><path d="M 312 0 L 312 30 L 342 30" fill="none" stroke="#000000" stroke-miterlimit="10" pointer-events="none"/><path d="M 282 200 L 312 200 L 342 230 L 342 280 L 282 280 L 282 200 Z" fill="#ffffff" stroke="#000000" stroke-miterlimit="10" pointer-events="none"/><path d="M 312 200 L 312 230 L 342 230" fill="none" stroke="#000000" stroke-miterlimit="10" pointer-events="none"/><path d="M 282 450 L 312 450 L 342 480 L 342 530 L 282 530 L 282 450 Z" fill="#ffffff" stroke="#000000" stroke-miterlimit="10" pointer-events="none"/><path d="M 312 450 L 312 480 L 342 480" fill="none" stroke="#000000" stroke-miterlimit="10" pointer-events="none"/><rect x="512" y="20" width="80" height="40" fill="none" stroke="none" pointer-events="none"/><g fill="#000000" font-family="Helvetica" text-anchor="middle" font-size="12px"><text x="552" y="44">&lt;service 1 password&gt;</text></g><rect x="512" y="220" width="80" height="40" fill="none" stroke="none" pointer-events="none"/><g fill="#000000" font-family="Helvetica" text-anchor="middle" font-size="12px"><text x="552" y="244">&lt;service 2 password&gt;</text></g><rect x="512" y="470" width="80" height="40" fill="none" stroke="none" pointer-events="none"/><g fill="#000000" font-family="Helvetica" text-anchor="middle" font-size="12px"><text x="552" y="494">&lt;service n password&gt;</text></g><path d="M 242 70 L 116 216" fill="none" stroke="#000000" stroke-miterlimit="10" pointer-events="none"/><path d="M 112 220 L 114 212 L 116 216 L 120 217 Z" fill="#000000" stroke="#000000" stroke-miterlimit="10" pointer-events="none"/><path d="M 252 440 L 116 305" fill="none" stroke="#000000" stroke-miterlimit="10" pointer-events="none"/><path d="M 113 301 L 120 304 L 116 305 L 115 309 Z" fill="#000000" stroke="#000000" stroke-miterlimit="10" pointer-events="none"/><path d="M 242 260 L 118 260" fill="none" stroke="#000000" stroke-miterlimit="10" pointer-events="none"/><path d="M 113 260 L 120 257 L 118 260 L 120 264 Z" fill="#000000" stroke="#000000" stroke-miterlimit="10" pointer-events="none"/><path d="M 482 40 L 388 40" fill="none" stroke="#000000" stroke-miterlimit="10" pointer-events="none"/><path d="M 383 40 L 390 37 L 388 40 L 390 44 Z" fill="#000000" stroke="#000000" stroke-miterlimit="10" pointer-events="none"/><path d="M 472 240 L 378 240" fill="none" stroke="#000000" stroke-miterlimit="10" pointer-events="none"/><path d="M 373 240 L 380 237 L 378 240 L 380 244 Z" fill="#000000" stroke="#000000" stroke-miterlimit="10" pointer-events="none"/><path d="M 482 490 L 388 490" fill="none" stroke="#000000" stroke-miterlimit="10" pointer-events="none"/><path d="M 383 490 L 390 487 L 388 490 L 390 494 Z" fill="#000000" stroke="#000000" stroke-miterlimit="10" pointer-events="none"/></g></svg>
